<?xml version="1.0" encoding="utf-8"?>
<!-- Svg Vector Icons : http://www.onlinewebfonts.com/icon -->
<!DOCTYPE svg PUBLIC "-//W3C//DTD SVG 1.1//EN" "http://www.w3.org/Graphics/SVG/1.1/DTD/svg11.dtd">
<svg version="1.1" xmlns="http://www.w3.org/2000/svg" xmlns:xlink="http://www.w3.org/1999/xlink" x="0px" y="0px" viewBox="0 0 1000 1000" enable-background="new 0 0 1000 1000" xml:space="preserve">
<metadata> Svg Vector Icons : http://www.onlinewebfonts.com/icon </metadata>
<g><g transform="translate(0.000000,511.000000) scale(0.100000,-0.100000)"><path d="M2518.4,4982.5c-106.5-46.9-215.2-185.4-242.9-309c-17.1-78.8-23.4-1031.4-23.4-3247.6c0-2996.1,2.1-3145.3,40.5-3317.9c87.4-387.8,232.3-701.1,436.8-935.5c127.9-149.2,187.5-277,242.9-534.9c27.7-130,34.1-281.3,32-794.8L3000-4790h1576.9h1574.8v613.7c2.1,336.7,10.7,762.9,19.2,946.2c17,323.9,19.2,338.8,93.8,496.5c191.8,400.6,517.8,777.8,892.9,1031.4c575.4,387.8,635,596.7,569,1973.3c-25.6,537-44.8,618-166.2,707.5c-32,25.6-355.8,189.7-718.1,366.5c-694.7,341-739.4,353.7-905.7,296.2c-115.1-38.3-185.4-102.3-242.9-217.3c-91.6-183.3-53.3-381.4,98-513.6c40.5-36.2,234.4-140.6,428.3-234.4l355.9-170.5l2.1-451.8c0-415.5-4.3-458.2-40.5-494.4c-49-49-249.3-78.8-737.3-108.7c-409.1-25.6-481.6-40.5-656.3-134.2c-281.3-149.2-500.8-522.1-569-963.2c-36.2-236.5-27.7-223.8-140.6-223.8H4334l12.8,144.9c19.2,213.1,89.5,458.1,198.2,681.9c170.5,353.8,464.5,596.7,797,662.7c63.9,12.8,270.6,32,458.1,44.7c187.5,12.8,392.1,27.7,453.9,36.2l110.8,12.8V13.2v302.6l-366.5,179c-202.4,98-375,183.3-383.6,187.5c-10.7,4.3-17-38.3-17-95.9c0-138.5-93.8-334.6-213.1-441.1C5241.8,17.4,5126.7-27.3,4926.4-27.3c-181.1,0-272.8,34.1-434.7,157.7c-57.5,42.6-74.6,49-83.1,25.6c-23.4-68.2-187.5-217.4-300.5-272.8c-162-81-404.9-83.1-571.1-8.5C3404.9-67.8,3249.4,92,3183.3,234.8l-46.9,100.2l-4.3,2150.1c-2.1,1182.7-8.5,2180-14.9,2218.3c-17.1,85.2-138.5,228-234.4,274.9C2795.5,5018.7,2608,5020.9,2518.4,4982.5z"/><path d="M4834.8,3307.6c-110.8-25.6-234.4-119.3-285.6-219.5c-49-89.5-49-91.6-55.4-1225.3c-4.3-730.9,2.1-1163.5,17-1216.8c53.3-202.4,221.6-332.4,426.2-330.3c63.9,2.1,147,17,181.1,36.2c85.2,42.6,193.9,159.8,221.6,234.4c29.8,78.8,32,2376,2.1,2452.7c-38.4,106.5-170.5,223.7-283.4,257.8C4941.3,3331,4937.1,3331,4834.8,3307.6z"/><path d="M5966.3,3309.7c-108.7-27.7-204.6-93.8-272.8-191.8l-63.9-91.6l-6.4-658.5l-6.4-660.6l112.9,63.9c228,125.7,483.7,140.6,705.3,38.4l121.5-55.4v596.7c0,641.4-4.3,669.1-115.1,801.2C6339.2,3271.4,6117.6,3345.9,5966.3,3309.7z"/><path d="M3743.7,3115.8c-153.4-27.7-270.6-119.3-330.3-260c-27.7-68.2-32-240.8-32-1235.9c0-1074,4.3-1163.5,40.5-1242.3c102.3-225.9,381.4-326,598.8-213.1c85.2,44.7,185.4,168.3,211,260c34.1,117.2,32,2299.3,0,2395.2C4161.4,3030.6,3956.8,3152,3743.7,3115.8z"/></g></g>
</svg>